Coordinates
version=1
nRows=10
nColumns=40
inDegrees=yes

Units are S.I. units (second, meters, Newtons, ...)
Angles are in degrees.

endheader
time	pelvis_tilt	pelvis_list	pelvis_rotation	pelvis_tx	pelvis_ty	pelvis_tz	hip_flexion_r	hip_adduction_r	hip_rotation_r	knee_angle_r	knee_angle_r_beta	ankle_angle_r	subtalar_angle_r	mtp_angle_r	hip_flexion_l	hip_adduction_l	hip_rotation_l	knee_angle_l	knee_angle_l_beta	ankle_angle_l	subtalar_angle_l	mtp_angle_l	lumbar_extension	lumbar_bending	lumbar_rotation	arm_flex_r	arm_add_r	arm_rot_r	elbow_flex_r	pro_sup_r	wrist_flex_r	wrist_dev_r	arm_flex_l	arm_add_l	arm_rot_l	elbow_flex_l	pro_sup_l	wrist_flex_l	wrist_dev_l
     10.50000000	      0.44340439	      4.70133461	     70.31477324	      0.71418537	      0.98212957	     -0.86234281	     11.08598160	     -3.41647380	      6.33790280	     59.77616085	      1.04329082	      0.07279400	      0.00000000	      0.00000000	     10.43477364	      9.49359199	    -10.06417864	     23.90549389	      0.41722958	     18.25874563	      0.00000000	      0.00000000	    -30.81855098	     -0.53376623	     18.82789142	     10.10155239	    -31.24423178	    -22.56741554	    132.16155519	     88.95140214	      0.00000000	      0.00000000	    -14.15537491	    -33.42097505	    -68.39826637	    138.02836645	     77.24622061	      0.00000000	      0.00000000
     10.51000000	     -0.30545612	      4.37138528	     70.35405911	      0.71353069	      0.97973999	     -0.85841859	     14.08894353	     -4.34873156	      7.43388469	     62.62750601	      1.09305618	      3.40045588	      0.00000000	      0.00000000	     10.60011995	     10.25659163	    -10.40300791	     24.00654997	      0.41899334	     18.54199927	      0.00000000	      0.00000000	    -30.62176720	     -0.71860187	     18.54311179	      9.33257335	    -31.11955558	    -23.66383177	    132.70920204	     88.95754040	      0.00000000	      0.00000000	    -12.79858771	    -32.78378253	    -67.62255765	    137.94469121	     80.82283410	      0.00000000	      0.00000000
     10.52000000	     -0.89328150	      4.54506142	     70.71804370	      0.71240138	      0.97882632	     -0.85517951	     15.95747520	     -5.27149467	      8.41038915	     64.11502756	      1.11901833	      7.35876964	      0.00000000	      0.00000000	      9.83239406	     11.28845429	     -9.97482535	     23.45978300	      0.40945046	     18.73254374	      0.00000000	      0.00000000	    -31.02418447	     -0.75200198	     17.74832173	      8.87440548	    -30.98400933	    -24.30580429	    132.92446684	     88.95400640	      0.00000000	      0.00000000	    -11.83147497	    -31.97837116	    -67.07137301	    137.98195903	     81.80012539	      0.00000000	      0.00000000
     10.53000000	     -1.07459847	      4.53338889	     71.08587994	      0.71164847	      0.97888820	     -0.85187517	     17.48897952	     -5.52492025	      9.35939670	     64.30649110	      1.12236000	     11.96931971	      0.00000000	      0.00000000	      9.05177009	     11.81389996	     -9.46189387	     22.88154492	      0.39935830	     18.97512032	      0.00000000	      0.00000000	    -31.38162371	     -0.33049556	     17.05866945	      8.69198373	    -30.66308218	    -24.68193887	    132.83751246	     88.94822420	      0.00000000	      0.00000000	    -10.92335884	    -30.87834360	    -66.44932385	    137.85532252	     82.57618142	      0.00000000	      0.00000000
     10.54000000	     -1.17602782	      4.31255443	     71.32347461	      0.71122711	      0.97943228	     -0.84841414	     18.84237539	     -5.35542988	     10.60450945	     63.21840837	      1.10336937	     16.32317658	      0.00000000	      0.00000000	      8.42660544	     12.17302955	     -8.91738092	     22.25812125	      0.38847750	     18.97314180	      0.00000000	      0.00000000	    -31.58135159	      0.15066094	     16.46013786	      8.63679027	    -30.34128063	    -24.74302035	    132.51963651	     88.95108347	      0.00000000	      0.00000000	    -10.22264482	    -29.63804161	    -65.76094224	    137.70915854	     83.05698024	      0.00000000	      0.00000000
     10.55000000	     -1.21866163	      4.30557929	     71.43886473	      0.71097180	      0.98082654	     -0.84535371	     19.47132350	     -5.07813336	     12.02283917	     60.79214081	      1.06102302	     19.88761295	      0.00000000	      0.00000000	      7.47630030	     12.54624514	     -8.51728597	     21.54106256	      0.37596247	     18.89486576	      0.00000000	      0.00000000	    -31.99885663	      0.57316822	     16.05890174	      8.46701464	    -29.97675474	    -24.97023491	    132.22110154	     88.94037723	      0.00000000	      0.00000000	     -9.42409128	    -28.35809717	    -64.88599415	    137.46297844	     85.14069360	      0.00000000	      0.00000000
     10.56000000	     -1.37362522	      3.65994157	     71.35597443	      0.71110061	      0.98139280	     -0.84193084	     20.68515480	     -4.52929594	     13.69364054	     57.64183899	      1.00603988	     22.19210340	      0.00000000	      0.00000000	      7.33780555	     12.76328120	     -8.24717170	     20.99308111	      0.36639839	     18.85742740	      0.00000000	      0.00000000	    -31.68357217	      0.96191624	     15.64309140	      8.58136146	    -29.50002928	    -24.67922799	    131.64079672	     88.93958976	      0.00000000	      0.00000000	     -9.10471419	    -26.97902498	    -64.11623470	    137.40987137	     85.18543074	      0.00000000	      0.00000000
     10.57000000	     -0.89698535	      3.56955880	     71.24369980	      0.71165471	      0.98360415	     -0.83918532	     20.49378896	     -3.51956332	     15.32864163	     53.27691683	      0.92985761	     23.64711115	      0.00000000	      0.00000000	      6.21992906	     12.51658935	     -7.93147227	     20.25102054	      0.35344699	     18.77254180	      0.00000000	      0.00000000	    -32.15347207	      1.77258343	     15.64505753	      8.47883777	    -29.23719660	    -24.76520639	    131.44377633	     88.93407967	      0.00000000	      0.00000000	     -8.48436952	    -25.58184605	    -62.90831400	    137.18372883	     86.04893393	      0.00000000	      0.00000000
     10.58000000	     -0.51100076	      3.14766541	     70.96658759	      0.71268900	      0.98536269	     -0.83600965	     20.66300996	     -2.44599565	     17.12234452	     48.64177326	      0.84895910	     24.10380946	      0.00000000	      0.00000000	      5.52762462	     12.17683025	     -7.86689443	     19.51447683	      0.34059187	     18.55370370	      0.00000000	      0.00000000	    -32.27100693	      2.46399197	     15.71291644	      8.49874335	    -28.89863410	    -24.64930557	    131.18641452	     88.93639338	      0.00000000	      0.00000000	     -8.17714061	    -24.35448028	    -61.82283693	    137.07168188	     86.37036261	      0.00000000	      0.00000000
     10.59000000	     -0.16803421	      2.82313542	     70.72143318	      0.71360318	      0.98716095	     -0.83305664	     20.69532320	     -1.46015999	     19.02794334	     44.01187923	      0.76815220	     24.15220460	      0.00000000	      0.00000000	      4.66374714	     11.93281063	     -7.81140157	     18.62172539	      0.32501042	     18.42884406	      0.00000000	      0.00000000	    -32.44856052	      3.11203422	     15.73636386	      8.50049479	    -28.62682273	    -24.61458688	    131.12852090	     88.93747107	      0.00000000	      0.00000000	     -7.89941522	    -23.26053855	    -60.65465129	    136.99974913	     86.64453488	      0.00000000	      0.00000000
